<svg width="353" height="93" viewBox="0 0 353 93" fill="none" xmlns="http://www.w3.org/2000/svg">
<g filter="url(#filter0_bd_121_1357)">
<rect x="4" width="345" height="85" rx="42.5" fill="url(#paint0_radial_121_1357)" shape-rendering="crispEdges"/>
<rect x="4.3" y="0.3" width="344.4" height="84.4" rx="42.2" stroke="url(#paint1_linear_121_1357)" stroke-width="0.6" shape-rendering="crispEdges"/>
</g>
<path d="M152.905 37.9991H157.465V39.3591H152.905V37.9991ZM156.525 33.0391H158.185V46.2791H156.525V33.0391ZM146.645 49.3391H158.685V50.6991H146.645V49.3391ZM146.645 45.1191H148.305V50.0391H146.645V45.1191ZM147.925 35.2791H149.285V36.7391C149.285 40.0191 147.245 42.8591 144.225 43.9791L143.365 42.6591C146.065 41.6991 147.925 39.2991 147.925 36.7391V35.2791ZM148.245 35.2791H149.585V36.7191C149.585 39.0591 151.345 41.3391 153.965 42.2591L153.125 43.5591C150.185 42.4991 148.245 39.7791 148.245 36.7191V35.2791ZM143.885 34.4991H153.545V35.8391H143.885V34.4991ZM166.403 43.7991H168.063V46.7391H166.403V43.7991ZM174.003 33.0191H175.663V51.0991H174.003V33.0191ZM175.123 40.6991H178.463V42.0991H175.123V40.6991ZM161.743 47.6591L161.503 46.2791C164.743 46.2791 169.163 46.2391 172.903 45.6991L173.043 46.9391C169.143 47.6391 164.903 47.6591 161.743 47.6591ZM161.803 35.1991H172.623V36.5391H161.803V35.1991ZM167.223 37.5991C169.743 37.5991 171.483 38.9191 171.483 40.9391C171.483 42.9791 169.743 44.2791 167.223 44.2791C164.703 44.2791 162.983 42.9791 162.983 40.9391C162.983 38.9191 164.703 37.5991 167.223 37.5991ZM167.223 38.8791C165.603 38.8791 164.543 39.6991 164.543 40.9391C164.543 42.1791 165.603 42.9991 167.223 42.9991C168.843 42.9991 169.923 42.1791 169.923 40.9391C169.923 39.6991 168.843 38.8791 167.223 38.8791ZM166.403 33.0391H168.063V36.0991H166.403V33.0391ZM186.135 34.6391H194.435V43.0191H186.135V34.6391ZM192.815 35.9791H187.755V41.6791H192.815V35.9791ZM197.755 32.9991H199.415V46.2591H197.755V32.9991ZM198.895 38.5191H202.095V39.8991H198.895V38.5191ZM188.155 49.3391H200.235V50.6991H188.155V49.3391ZM188.155 44.9991H189.815V49.9191H188.155V44.9991ZM203.793 40.5591H220.133V41.9191H203.793V40.5591ZM205.953 37.7591H218.193V39.0991H205.953V37.7591ZM205.953 33.5991H217.993V34.9591H207.593V38.8391H205.953V33.5991ZM205.753 43.4791H218.033V47.7391H207.433V50.0191H205.793V46.4991H216.393V44.7791H205.753V43.4791ZM205.793 49.5791H218.573V50.8991H205.793V49.5791ZM235.352 33.0191H237.012V51.0991H235.352V33.0191ZM230.052 34.9591H231.692C231.692 40.1991 229.332 44.7791 223.292 47.7391L222.412 46.3991C227.632 43.8791 230.052 40.0391 230.052 35.2391V34.9591ZM223.232 34.9591H230.772V36.3191H223.232V34.9591Z" fill="white" fill-opacity="0.6"/>
<path d="M68.8667 48.9482C66.7211 48.9482 64.6453 48.5994 62.709 47.9714C62.0984 47.7621 61.4181 47.9191 60.9471 48.39L58.2084 51.8265C53.2718 49.4716 48.6491 45.0233 46.1895 39.9123L49.5911 37.0165C50.0621 36.5281 50.2016 35.8478 50.0097 35.2373C49.3643 33.301 49.0329 31.2251 49.0329 29.0795C49.0329 28.1375 48.2479 27.3526 47.3059 27.3526H41.2703C40.3283 27.3526 39.1945 27.7712 39.1945 29.0795C39.1945 45.285 52.6787 58.7518 68.8667 58.7518C70.1052 58.7518 70.5937 57.6528 70.5937 56.6934V50.6752C70.5937 49.7332 69.8087 48.9482 68.8667 48.9482Z" fill="#FBFBFB"/>
<defs>
<filter id="filter0_bd_121_1357" x="0" y="-4" width="353" height="97" filterUnits="userSpaceOnUse" color-interpolation-filters="sRGB">
<feFlood flood-opacity="0" result="BackgroundImageFix"/>
<feGaussianBlur in="BackgroundImageFix" stdDeviation="2"/>
<feComposite in2="SourceAlpha" operator="in" result="effect1_backgroundBlur_121_1357"/>
<feColorMatrix in="SourceAlpha" type="matrix" values="0 0 0 0 0 0 0 0 0 0 0 0 0 0 0 0 0 0 127 0" result="hardAlpha"/>
<feOffset dy="4"/>
<feGaussianBlur stdDeviation="2"/>
<feComposite in2="hardAlpha" operator="out"/>
<feColorMatrix type="matrix" values="0 0 0 0 0 0 0 0 0 0 0 0 0 0 0 0 0 0 0.25 0"/>
<feBlend mode="normal" in2="effect1_backgroundBlur_121_1357" result="effect2_dropShadow_121_1357"/>
<feBlend mode="normal" in="SourceGraphic" in2="effect2_dropShadow_121_1357" result="shape"/>
</filter>
<radialGradient id="paint0_radial_121_1357" cx="0" cy="0" r="1" gradientUnits="userSpaceOnUse" gradientTransform="translate(176.5 42.5) rotate(-177.945) scale(555.624 2089.95)">
<stop stop-color="white" stop-opacity="0.2"/>
<stop offset="1" stop-color="white"/>
</radialGradient>
<linearGradient id="paint1_linear_121_1357" x1="23.9039" y1="-2.1384e-06" x2="81.8372" y2="168.807" gradientUnits="userSpaceOnUse">
<stop stop-color="white"/>
<stop offset="1" stop-color="white" stop-opacity="0"/>
</linearGradient>
</defs>
</svg>
